<svg width="54" height="54" viewBox="0 0 54 54" fill="none" xmlns="http://www.w3.org/2000/svg">
<path d="M27 1.07983C12.6846 1.07983 1.07996 12.6844 1.07996 26.9998C1.07996 41.3152 12.6846 52.9198 27 52.9198C41.3154 52.9198 52.92 41.3152 52.92 26.9998C52.92 12.6844 41.3154 1.07983 27 1.07983ZM20.655 37.7431H15.4062V20.8519H20.655V37.7431ZM17.9982 18.7783C16.3404 18.7783 15.2685 17.6038 15.2685 16.1512C15.2685 14.6689 16.3728 13.5295 18.0657 13.5295C19.7586 13.5295 20.7954 14.6689 20.8278 16.1512C20.8278 17.6038 19.7586 18.7783 17.9982 18.7783ZM39.825 37.7431H34.5762V28.3822C34.5762 26.2033 33.8148 24.7237 31.9167 24.7237C30.4668 24.7237 29.6055 25.7254 29.2248 26.6893C29.0844 27.0322 29.0493 27.5182 29.0493 28.0015V37.7404H23.7978V26.2384C23.7978 24.1297 23.7303 22.3666 23.6601 20.8492H28.2204L28.4607 23.1955H28.566C29.2572 22.0939 30.9501 20.4685 33.7824 20.4685C37.2357 20.4685 39.825 22.7824 39.825 27.7558V37.7431Z" fill="#484848"/>
</svg>
