<svg width="55" height="29" viewBox="0 0 55 29" fill="none" xmlns="http://www.w3.org/2000/svg">
<circle cx="35.5" cy="26.5" r="2.5" fill="#484848"/>
<path d="M17 0H29.0827C30.6268 0 31.9651 0.246864 33.0974 0.740591C34.2555 1.20833 35.2077 1.89695 35.954 2.80645C36.5974 3.56004 37.0993 4.40457 37.4596 5.34005C37.8199 6.27554 38 7.32796 38 8.49731C38 11.1738 37.2279 13.2787 35.6838 14.8118C34.1397 16.319 31.8107 17.0726 28.6967 17.0726H20.9761V29H17V0ZM20.9761 13.8374H28.3107C30.2665 13.8374 31.7077 13.3826 32.6342 12.4731C33.5864 11.5376 34.0625 10.2513 34.0625 8.61425C34.0625 6.89919 33.5735 5.6129 32.5956 4.75538C31.6176 3.89785 30.2408 3.46909 28.4651 3.46909H20.9761V13.8374Z" fill="#484848"/>
<path d="M0 0H7V2.36084H2.88596V26.5115H7V29H0V0Z" fill="#484848"/>
<path d="M55 0H48V2.36084H52.114V26.5115H48V29H55V0Z" fill="#484848"/>
</svg>
