<svg width="92" height="80" viewBox="0 0 92 80" fill="none" xmlns="http://www.w3.org/2000/svg">
<path fill-rule="evenodd" clip-rule="evenodd" d="M20.7276 11.2498C18.6553 7.66058 19.8849 3.07115 23.4743 0.998804C27.0635 -1.07342 31.6531 0.15636 33.7254 3.74556L45.5401 27.2428C45.7249 27.6102 46.2493 27.6102 46.434 27.2428L58.2488 3.74558C60.321 0.156323 64.9105 -1.07343 68.4998 0.998848C72.0892 3.07101 73.3188 7.66063 71.2466 11.2498L56.8193 33.2297C56.5936 33.5735 56.8559 34.0274 57.2664 34.0036L83.5084 32.4879C87.6528 32.4879 91.0128 35.8476 91.0126 39.9922C91.0126 44.1367 87.6528 47.4964 83.5084 47.4964L57.2596 45.9918C56.8492 45.9683 56.587 46.4225 56.8128 46.7661L71.2467 68.7345C73.319 72.3237 72.0892 76.9133 68.5 78.9855C64.9106 81.0579 60.3212 79.828 58.2489 76.2388L46.4338 52.7673C46.249 52.4003 45.7249 52.4002 45.5402 52.7673L33.7252 76.2388C31.653 79.828 27.0635 81.0578 23.4742 78.9854C19.885 76.9132 18.6552 72.3237 20.7274 68.7345L35.1613 46.766C35.3869 46.4225 35.125 45.9684 34.7146 45.9918L8.46563 47.4964C4.32118 47.4964 0.961458 44.1366 0.961426 39.9921C0.961394 35.8476 4.32116 32.4878 8.46564 32.4879L34.7076 34.0037C35.1182 34.0274 35.3804 33.5734 35.1549 33.2297L20.7276 11.2498ZM25.6313 16.8301C23.9613 13.9376 24.9522 10.2391 27.8448 8.56912C30.7373 6.8991 34.4357 7.89022 36.1057 10.7827L45.0931 28.6568C45.4626 29.3916 46.5116 29.3916 46.8811 28.6567L55.8685 10.7825C57.5384 7.89016 61.237 6.8991 64.1294 8.5691C67.022 10.239 68.013 13.9376 66.343 16.83L55.3681 33.5502C54.9168 34.2377 55.4413 35.1456 56.2623 35.0981L76.2244 33.9451C79.5643 33.945 82.2719 36.6525 82.2718 39.9926C82.2718 43.3325 79.5642 46.04 76.2244 46.04L56.2568 44.8954C55.4359 44.8484 54.9118 45.7566 55.3633 46.4438L66.3429 63.1551C68.0129 66.0475 67.022 69.7461 64.1295 71.4161C61.2369 73.0861 57.5385 72.095 55.8685 69.2025L46.8807 51.3477C46.5112 50.6134 45.4631 50.6134 45.0933 51.3478L36.1058 69.2024C34.4358 72.0949 30.7372 73.086 27.8448 71.416C24.9524 69.746 23.9614 66.0474 25.6312 63.1551L36.611 46.4438C37.0624 45.7567 36.5384 44.8484 35.7174 44.8955L15.7498 46.04C12.41 46.0399 9.70249 43.3324 9.70243 39.9925C9.70238 36.6526 12.41 33.945 15.7499 33.945L35.7119 35.0982C36.5329 35.1455 37.0574 34.2375 36.6062 33.5502L25.6313 16.8301Z" fill="#24FF00"/>
</svg>
